<svg xmlns="http://www.w3.org/2000/svg" width="14" height="14" viewBox="0 0 14 14"><path d="M4.238 10.972h1.437V4.918h-1.01c-.016.098-.05.202-.097.312-.05.112-.124.214-.227.31-.1.092-.24.17-.41.233s-.39.095-.67.095h-.18v.906h1.16v4.198zm4.908.118c.673 0 1.172-.167 1.496-.503.325-.337.488-.89.488-1.66 0-.734-.127-1.27-.38-1.603-.255-.333-.658-.5-1.21-.5-.098 0-.196.01-.295.03-.1.02-.195.05-.287.094-.09.043-.174.094-.248.154-.073.06-.13.127-.17.2l-.018-.016.07-1.137h2.29V5.03H7.487L7.3 8.312h1.333c.022-.176.085-.3.184-.372.1-.07.215-.106.347-.106.188 0 .323.085.406.256.082.17.124.437.124.795 0 .416-.036.737-.107.962s-.22.338-.448.338c-.11 0-.19-.02-.26-.064s-.12-.09-.16-.17-.07-.15-.08-.24c-.02-.09-.02-.18-.02-.29v-.23H7.24v.23c0 .54.155.95.466 1.24.31.29.79.44 1.44.44zM7.27 2.352c-.02.015-.034.034-.043.055-.01.022-.014.05-.014.086 0 .05.01.09.028.12.02.027.05.042.09.042.04 0 .08-.013.11-.038s.05-.07.05-.137v-.223c-.06.03-.1.05-.13.06-.03.01-.05.02-.07.035z"/><path d="M12.558.534h-.48c.013-.04.025-.08.025-.124 0-.226-.185-.41-.413-.41-.227 0-.41.184-.41.41 0 .045.012.085.024.125H9.73c.014-.04.027-.08.027-.124 0-.22-.185-.41-.41-.41s-.412.19-.412.41c0 .05.013.09.025.13H7.387C7.4.5 7.41.46 7.41.41 7.41.185 7.23 0 7 0s-.41.184-.41.41c0 .045.012.085.024.125H5.04c.013-.04.026-.08.026-.124 0-.22-.184-.41-.41-.41-.228 0-.412.19-.412.41 0 .05.012.09.024.13H2.696C2.71.5 2.72.46 2.72.42c0-.226-.18-.41-.41-.41s-.41.178-.41.4c0 .045.01.085.024.125h-.48C.794.535.266 1.062.266 1.71v11.115c0 .65.527 1.175 1.176 1.175h9.787l2.5-2.503V1.71c0-.648-.53-1.176-1.18-1.176zm-4.223 1.08l.154.89.15-.89h.38l-.34 1.28c-.03.082-.05.15-.07.202-.03.052-.06.093-.09.123s-.08.05-.13.06c-.05.01-.12.01-.19.01h-.13c-.02 0-.03 0-.04-.01v-.26h.09c.03 0 .07-.01.1-.03s.05-.06.06-.11L7.92 1.6l.393-.01zm-.885.25c-.02-.023-.05-.034-.092-.034-.053 0-.09.016-.108.046s-.03.073-.03.127h-.34c.002-.09.016-.16.04-.213s.06-.096.105-.127c.045-.032.096-.053.152-.065.055-.012.123-.018.203-.018.157 0 .27.03.343.086.072.057.108.154.108.29v.654c0 .048.01.1.01.152.01.054.02.094.04.123h-.37c0-.022-.01-.045-.01-.07l-.01-.075h-.01c-.02.055-.06.1-.12.13-.05.032-.11.047-.17.047-.11 0-.19-.03-.25-.09s-.09-.16-.09-.298c0-.08.02-.15.04-.2.03-.06.07-.1.11-.13s.11-.05.17-.06l.18-.04.07-.02c.02-.01.03-.02.04-.03.02-.01.02-.03.02-.04.01-.02.01-.04.01-.06 0-.04-.01-.07-.03-.09zm-2.363-.657h.58l.206 1.102h.005l.2-1.11h.57v1.68h-.366v-1.3h-.005l-.257 1.3h-.305l-.27-1.31H5.44v1.31h-.353V1.2zm8.005 10.024l-.133.14h-1.01c-.47 0-.86.39-.86.86v1.01l-.14.14H1.44c-.294 0-.535-.24-.535-.534V3.85H13.09v7.384z"/></svg>