<svg xmlns="http://www.w3.org/2000/svg" width="14" height="14" viewBox="0 0 14 14"><path d="M.802 2.556h5.816c-.25.248-.494.496-.743.745l-.855.86H1.6v8.23h8.23V8.97l1.602-1.6v5.82c0 .442-.36.802-.802.802H.802c-.443 0-.802-.36-.802-.802V3.355c0-.442.36-.8.802-.8zm13.036-.488c.085.194.107.413.162.622-.014.166-.07.294-.188.408-2.362 2.36-4.726 4.72-7.085 7.085-.09.092-.19.143-.314.168-1.02.22-2.038.43-3.056.65-.24.05-.42-.13-.368-.37.21-1.02.42-2.05.65-3.08.02-.1.08-.2.15-.28.67-.68 1.36-1.36 2.04-2.04L10.87.19c.123-.125.26-.188.426-.168.19.022.385.042.56.113.92.373 1.577 1.03 1.977 1.94zM6.068 9.71c-.047-.15-.072-.314-.147-.45-.28-.534-.7-.946-1.24-1.217-.15-.076-.31-.125-.5-.107-.09.43-.182.85-.27 1.27v.005c.45.08.81.43.898.87l1.188-.24c.077-.01.106-.05.086-.12z"/></svg>