<svg xmlns="http://www.w3.org/2000/svg" width="14" height="14" viewBox="0 0 14 14"><path d="M7.74 11.092c0-1.85 1.5-3.35 3.35-3.35.39 0 .64.047.905.125.178.076.245-.072.265-.143.12-.452.188-.913.188-1.377l-.018-4.033c0-.39-.224-.39-.323-.39-.715.004-1.445.005-2.212-.216C8.3 1.248 6.885 0 6.345 0c-.522 0-1.574 1.25-3.17 1.708-.898.26-1.76.21-2.566.174-.098-.004-.25-.03-.296.3-.01.08-.072 4.118-.072 4.165C.242 10.293 5.124 14 6.345 14c.39 0 1.02-.314 1.868-.944.113-.098.053-.163.02-.217-.313-.51-.493-1.11-.493-1.75z"/><path d="M11.11 12.8c-.112.122-.313.14-.447.042l-2.12-1.568c-.135-.1-.162-.287-.063-.42l.272-.36c.1-.134.29-.16.425-.064l1.36.998c.134.098.335.078.448-.043l1.92-2.01c.11-.12.304-.13.425-.016l.33.306c.122.113.13.305.017.426L11.11 12.8z"/></svg>