<svg xmlns="http://www.w3.org/2000/svg" width="14" height="14" viewBox="0 0 14 14"><path d="M8.313 0C5.17 0 2.625 2.546 2.625 5.688c0 1.352.473 2.59 1.26 3.567L.178 12.962c-.237.236-.237.622 0 .86.237.235.622.235.858 0l3.707-3.71c.978.79 2.217 1.263 3.568 1.263 3.144 0 5.69-2.547 5.69-5.688C14 2.547 11.454 0 8.313 0zm0 10.5C5.658 10.5 3.5 8.342 3.5 5.688S5.66.875 8.313.875s4.813 2.16 4.813 4.813-2.16 4.812-4.813 4.812z"/><path d="M10.938 5.25H8.75V3.062c0-.24-.196-.438-.438-.438-.24 0-.438.197-.438.438V5.25H5.688c-.24 0-.438.196-.438.438s.196.438.438.438h2.188v2.188c0 .24.197.438.438.438.24 0 .438-.196.438-.438v-2.19h2.188c.242 0 .438-.195.438-.437-.003-.24-.198-.437-.44-.437z"/></svg>