<svg xmlns="http://www.w3.org/2000/svg" width="150" height="150" viewBox="0 0 150 150"><path d="M147 3.5v63H3v-63h144m3-3.5H0v70h150V0z"/><path d="M88 69.417c-.43 0-.855-.214-1.152-.63L57.858 28.2l-37.84 40.752c-.608.658-1.558.612-2.12-.1s-.524-1.817.084-2.472l39-42c.302-.326.704-.498 1.116-.46.41.03.79.257 1.054.625l30 42c.53.743.444 1.846-.192 2.465-.28.274-.62.407-.96.407z"/><path d="M148 48.417c-.328 0-.657-.124-.934-.38L108.938 12.68 70.854 43.44c-.682.55-1.616.35-2.087-.443-.472-.795-.302-1.885.38-2.436l39-31.5c.54-.434 1.27-.41 1.786.07l39 36.17c.648.6.756 1.7.24 2.46-.295.433-.733.66-1.174.66zM26.5 33.833c-5.238 0-9.5-4.972-9.5-11.083s4.262-11.083 9.5-11.083S36 16.64 36 22.75s-4.262 11.083-9.5 11.083zm0-18.666c-3.584 0-6.5 3.402-6.5 7.583 0 4.182 2.916 7.583 6.5 7.583s6.5-3.4 6.5-7.583c0-4.18-2.916-7.583-6.5-7.583zm73.5 69.83C100 87.76 97.76 90 94.996 90H5.003C2.24 90 0 87.76 0 84.996c0-2.763 2.24-5.003 5.003-5.003h89.993c2.764 0 5.004 2.24 5.004 5.003zm33 16.08c0 1.664-1.195 3.013-2.67 3.013H2.67c-1.474 0-2.67-1.35-2.67-3.012 0-1.664 1.196-3.013 2.67-3.013h127.66c1.475 0 2.67 1.35 2.67 3.013zm6 11.963c0 1.806-1.356 3.27-3.03 3.27H3.03c-1.674 0-3.03-1.464-3.03-3.27 0-1.807 1.356-3.27 3.03-3.27h132.94c1.674 0 3.03 1.463 3.03 3.27zm-9 12.04c0 1.613-1.307 2.92-2.92 2.92H2.92C1.306 128 0 126.693 0 125.08c0-1.61 1.307-2.918 2.92-2.918h124.16c1.613 0 2.92 1.307 2.92 2.92zm-70 12.35c0-1.896-1.343-3.43-3-3.43H3c-1.657 0-3 1.534-3 3.43v9.142C0 148.466 1.343 150 3 150h54c1.657 0 3-1.534 3-3.43v-9.14z"/><path fill="#FFF" d="M9 147l4-4h-2.5v-4h-3v4H5l4 4zm9.58-7.637c.33-.08.81-.13 1.33-.13.85 0 1.438.2 1.868.6.58.52.88 1.41.88 2.72 0 1.358-.35 2.328-.94 2.848-.45.44-1.12.65-2.06.65-.41 0-.818-.04-1.078-.07v-6.614zm1.31 5.598c.06.02.16.02.23.02.628 0 1.178-.615 1.178-2.475 0-1.38-.36-2.22-1.15-2.22-.09 0-.18 0-.26.03v4.65zm7.048-1.42c0 2.04-1.13 2.54-1.868 2.54-1.17 0-1.87-.92-1.87-2.51 0-1.756.92-2.535 1.89-2.535 1.148 0 1.848.97 1.848 2.508zm-2.44 0c0 .84.13 1.54.6 1.54.42 0 .53-.82.53-1.54 0-.666-.11-1.516-.55-1.516-.478 0-.58.85-.58 1.52zm4.082-2.426l.26 2.11c.07.528.13 1.02.17 1.478h.03c.08-.46.18-1 .27-1.46l.43-2.13h1.01l.42 2.08c.1.55.188 1.03.25 1.51h.028c.03-.46.09-.97.17-1.5l.3-2.09h1.29l-1.26 4.89h-1.11l-.37-1.71c-.1-.45-.19-.97-.25-1.527h-.02c-.06.57-.17 1.08-.28 1.54l-.42 1.698h-1.12l-1.198-4.887h1.4zm5.17 1.47c0-.54-.03-1.01-.04-1.47h1.13l.06.56h.02c.26-.39.68-.64 1.19-.64.93 0 1.3.74 1.3 1.83V146H36.1v-3.06c0-.42-.1-.81-.48-.81-.22 0-.4.15-.49.44-.04.1-.07.26-.07.45V146h-1.31v-3.418zm4.58-3.498h1.31V146h-1.31v-6.916zm5.817 4.456c0 2.04-1.13 2.54-1.868 2.54-1.17 0-1.87-.92-1.87-2.51 0-1.757.92-2.536 1.89-2.536 1.145 0 1.844.97 1.844 2.508zm-2.438 0c0 .84.13 1.54.6 1.54.42 0 .53-.82.53-1.54 0-.667-.11-1.517-.55-1.517-.48 0-.58.85-.58 1.52zm5.366 2.46l-.07-.48h-.02c-.27.38-.65.56-1.08.56-.74 0-1.29-.62-1.29-1.487 0-1.28 1.13-1.81 2.24-1.82v-.108c0-.38-.23-.66-.69-.66-.39 0-.71.1-1 .28l-.238-.88c.27-.16.84-.37 1.52-.37 1.487 0 1.727 1.04 1.727 2.03v1.818c0 .39.02.79.08 1.12h-1.18zm-.18-2.38c-.44.01-1.04.15-1.04.83 0 .49.27.67.47.67.21 0 .45-.13.54-.42.02-.07.03-.15.03-.23v-.85zm5.76-4.535v5.467c0 .47.02 1 .04 1.45h-1.13l-.07-.55h-.02c-.18.34-.57.63-1.02.63-1.04 0-1.52-1.15-1.52-2.52 0-1.697.74-2.526 1.57-2.526.43 0 .7.21.82.49h.02v-2.44h1.31zm-1.31 3.907c0-.09 0-.187-.01-.287-.05-.3-.21-.57-.47-.57-.46 0-.63.67-.63 1.46 0 .93.25 1.42.62 1.42.16 0 .35-.09.45-.43.03-.07.04-.182.04-.3v-1.29z"/></svg>