<svg xmlns="http://www.w3.org/2000/svg" width="150" height="150" viewBox="0 0 150 150"><path d="M150 6.003c0 3.316-1.95 6.004-4.354 6.004H67.353C64.95 12.007 63 9.32 63 6.003 63 2.688 64.95 0 67.353 0h78.293C148.05 0 150 2.688 150 6.003zm-10 18.082c0 1.663-.692 3.012-1.546 3.012H64.546c-.854 0-1.546-1.35-1.546-3.012 0-1.664.692-3.013 1.546-3.013h73.908c.854 0 1.546 1.35 1.546 3.013zm0 43.928c0 1.663-.692 3.012-1.546 3.012H64.546c-.854 0-1.546-1.35-1.546-3.012C63 66.35 63.692 65 64.546 65h73.908c.854 0 1.546 1.35 1.546 3.013zm10-28.967c0 1.807-.85 3.27-1.896 3.27H64.896c-1.047 0-1.896-1.463-1.896-3.27 0-1.806.85-3.27 1.896-3.27h83.207c1.048 0 1.897 1.464 1.897 3.27zm-18 15.042c0 1.612-.693 2.92-1.55 2.92h-65.9c-.857 0-1.55-1.308-1.55-2.92 0-1.612.693-2.92 1.55-2.92h65.9c.857 0 1.55 1.308 1.55 2.92zm0 28.992c0 1.613-.693 2.92-1.55 2.92h-65.9c-.857 0-1.55-1.307-1.55-2.92 0-1.61.693-2.918 1.55-2.918h65.9c.857 0 1.55 1.307 1.55 2.92zm-9 45.35c0-1.896-1.344-3.43-3-3.43H66c-1.657 0-3 1.534-3 3.43v9.142c0 1.895 1.343 3.43 3 3.43h54c1.656 0 3-1.535 3-3.43v-9.143z"/><path fill="#FFF" d="M72 138l4-4h-2.5v-4h-3v4H68l4 4zm9.58-7.637c.33-.08.81-.13 1.33-.13.85 0 1.438.2 1.868.6.58.52.88 1.41.88 2.72 0 1.358-.35 2.328-.94 2.848-.45.44-1.12.65-2.06.65-.41 0-.818-.04-1.078-.07v-6.61zm1.31 5.598c.06.02.16.02.23.02.628 0 1.178-.61 1.178-2.47 0-1.38-.36-2.22-1.15-2.22-.09 0-.18 0-.26.03v4.65zm7.048-1.42c0 2.04-1.13 2.54-1.868 2.54-1.17 0-1.87-.92-1.87-2.51 0-1.75.92-2.53 1.89-2.53 1.148 0 1.848.97 1.848 2.51zm-2.44 0c0 .84.13 1.54.6 1.54.42 0 .53-.82.53-1.54 0-.66-.11-1.51-.55-1.51-.478 0-.58.85-.58 1.52zm4.082-2.42l.26 2.11c.07.53.13 1.02.17 1.48h.03c.08-.46.18-1 .27-1.46l.43-2.13h1.01l.42 2.08c.1.55.188 1.03.25 1.51h.028c.03-.46.09-.97.17-1.5l.3-2.09h1.29l-1.26 4.89h-1.11l-.37-1.71c-.1-.45-.19-.97-.25-1.524h-.02c-.06.57-.17 1.08-.28 1.54l-.42 1.698h-1.12l-1.198-4.886h1.4zm5.17 1.47c0-.54-.03-1.01-.04-1.47h1.13l.06.56h.02c.26-.39.68-.64 1.19-.64.93 0 1.3.74 1.3 1.83V137H99.1v-3.06c0-.42-.1-.81-.48-.81-.22 0-.4.15-.49.44-.04.1-.07.26-.07.45V137h-1.31v-3.418zm4.58-3.5h1.31V137h-1.31v-6.916zm5.817 4.46c0 2.04-1.13 2.54-1.868 2.54-1.17 0-1.87-.92-1.87-2.51 0-1.755.92-2.534 1.89-2.534 1.14 0 1.84.97 1.84 2.507zm-2.438 0c0 .84.13 1.54.6 1.54.42 0 .53-.82.53-1.54 0-.665-.11-1.515-.55-1.515-.48 0-.58.85-.58 1.52zm5.36 2.46l-.07-.48h-.02c-.27.38-.65.56-1.08.56-.74 0-1.29-.62-1.29-1.485 0-1.28 1.13-1.81 2.24-1.82v-.11c0-.38-.23-.66-.69-.66-.39 0-.71.1-1 .28l-.24-.88c.27-.16.84-.37 1.52-.37 1.484 0 1.724 1.04 1.724 2.03v1.82c0 .39.02.79.08 1.12h-1.18zm-.18-2.38c-.44.01-1.04.15-1.04.83 0 .49.27.67.47.67.21 0 .45-.13.54-.42.02-.07.03-.15.03-.23v-.85zm5.76-4.533v5.467c0 .47.02 1 .04 1.45h-1.13l-.07-.55h-.02c-.18.34-.57.63-1.02.63-1.04 0-1.52-1.15-1.52-2.52 0-1.697.74-2.526 1.57-2.526.43 0 .7.21.82.49h.02v-2.44h1.31zM114.34 134c0-.09 0-.188-.01-.288-.05-.3-.21-.57-.47-.57-.46 0-.63.67-.63 1.46 0 .93.25 1.42.62 1.42.16 0 .35-.09.45-.43.03-.07.04-.185.04-.3V134z"/><path fill="#010002" d="M54.403 56.003H1.6c-.884 0-1.6-.716-1.6-1.6V1.6C0 .72.716 0 1.6 0h52.803c.884 0 1.6.718 1.6 1.6v52.803c0 .884-.716 1.6-1.6 1.6zM3.2 52.806h49.605V3.2H3.2v49.606z"/><path fill="#010002" d="M1.6 56.003c-.38 0-.763-.134-1.07-.41-.656-.59-.71-1.603-.12-2.26l16-17.814c.29-.33.693-.52 1.124-.53.42-.02.85.13 1.163.43l4.16 3.9 12.607-12.46c.604-.6 1.57-.62 2.196-.05l17.815 16.05c.337.3.528.73.528 1.184V54.4c0 .885-.716 1.6-1.6 1.6H36.59c-.407 0-.797-.155-1.094-.433l-17.798-16.69L2.79 55.472c-.316.352-.752.53-1.19.53zm35.62-3.197h15.584V44.77L36.64 30.203 25.194 41.518 37.22 52.806zM18.083 28.483c-4.236 0-7.682-3.447-7.682-7.68 0-4.237 3.45-7.683 7.69-7.683s7.68 3.446 7.68 7.682c0 4.234-3.44 7.68-7.68 7.68zm0-12.16c-2.47 0-4.48 2.008-4.48 4.478 0 2.47 2.01 4.48 4.48 4.48 2.47 0 4.48-2.01 4.48-4.48-.002-2.47-2.012-4.47-4.48-4.47z"/><path d="M66.93 92l1.213 2.46 2.715.394-1.964 1.915.463 2.7-2.428-1.28-2.43 1.28.46-2.71L63 94.85l2.712-.393M76.93 92l1.214 2.46 2.714.394-1.964 1.915.463 2.7-2.428-1.28-2.43 1.28.46-2.71L73 94.85l2.713-.393M86.783 92l1.22 2.46 2.714.394-1.965 1.915.464 2.7-2.43-1.28-2.427 1.28.46-2.71-1.97-1.92 2.71-.393m11.285 3.773v-6.09l-1.14 2.32-2.717.397 1.964 1.915-.465 2.704m-26.04 13.95c1.62 0 2.93-1.31 2.93-2.93s-1.31-2.92-2.93-2.92-2.93 1.315-2.93 2.924 1.31 2.93 2.93 2.93zm0-5.087c1.186 0 2.157.97 2.157 2.155 0 1.19-.97 2.16-2.157 2.16s-2.153-.97-2.153-2.155c0-1.185.97-2.156 2.155-2.156zm-5.06 9.67h10.176c.216 0 .387-.17.387-.387 0-2.022-1.64-3.677-3.67-3.677h-3.6c-2.02 0-3.67 1.645-3.67 3.677 0 .216.17.387.387.387zm3.29-3.29h3.595c1.474 0 2.688 1.096 2.876 2.517H63.8c.19-1.412 1.402-2.517 2.877-2.517zm49.322-.79c0 1.61-.383 2.918-.854 2.918H78.853c-.47 0-.853-1.307-.853-2.92 0-1.61.382-2.918.853-2.918h36.295c.47 0 .852 1.307.852 2.92z"/></svg>